<?xml version="1.0" encoding="UTF-8" standalone="no"?>
<!-- Created with Inkscape (http://www.inkscape.org/) -->

<svg
   xmlns:dc="http://purl.org/dc/elements/1.1/"
   xmlns:cc="http://creativecommons.org/ns#"
   xmlns:rdf="http://www.w3.org/1999/02/22-rdf-syntax-ns#"
   xmlns:svg="http://www.w3.org/2000/svg"
   xmlns="http://www.w3.org/2000/svg"
   xmlns:sodipodi="http://sodipodi.sourceforge.net/DTD/sodipodi-0.dtd"
   xmlns:inkscape="http://www.inkscape.org/namespaces/inkscape"
   width="744.09448819"
   height="1052.3622047"
   id="svg2"
   version="1.1"
   inkscape:version="0.48.5 r10040"
   sodipodi:docname="digitus.svg">
  <defs
     id="defs4" />
  <sodipodi:namedview
     id="base"
     pagecolor="#ffffff"
     bordercolor="#666666"
     borderopacity="1.0"
     inkscape:pageopacity="0.0"
     inkscape:pageshadow="2"
     inkscape:zoom="0.25"
     inkscape:cx="550.37316"
     inkscape:cy="821.06497"
     inkscape:document-units="px"
     inkscape:current-layer="layer1"
     showgrid="false"
     inkscape:window-width="1920"
     inkscape:window-height="1017"
     inkscape:window-x="-8"
     inkscape:window-y="-8"
     inkscape:window-maximized="1" />
  <metadata
     id="metadata7">
    <rdf:RDF>
      <cc:Work
         rdf:about="">
        <dc:format>image/svg+xml</dc:format>
        <dc:type
           rdf:resource="http://purl.org/dc/dcmitype/StillImage" />
        <dc:title></dc:title>
      </cc:Work>
    </rdf:RDF>
  </metadata>
  <g
     inkscape:label="Layer 1"
     inkscape:groupmode="layer"
     id="layer1">
    <g
       id="g3912"
       transform="translate(1172.6946,35.090093)">
      <path
         transform="matrix(0.83906679,0,0,0.79812895,10.773532,-34.159862)"
         d="m -837,120.36219 c 0,64.61732 -49.02482,117 -109.5,117 -60.4752,0 -109.5,-52.38268 -109.5,-117 0,-64.617315 49.0248,-116.9999998 109.5,-116.9999998 60.47518,0 109.5,52.3826848 109.5,116.9999998 z"
         sodipodi:ry="117"
         sodipodi:rx="109.5"
         sodipodi:cy="120.36219"
         sodipodi:cx="-946.5"
         id="path3890"
         style="fill:#005fd9;fill-opacity:1;stroke:none"
         sodipodi:type="arc" />
      <path
         sodipodi:nodetypes="cczccccccscssscccccccsccccccccccccccccccccc"
         inkscape:connector-curvature="0"
         id="path3892"
         d="m -939.0378,339.59855 -0.17678,473.05443 c -0.48626,6.27482 -3.88259,18.01322 -17.50089,17.41251 -13.6183,-0.60072 -16.00968,-12.02106 -16.99109,-17.03935 l 0.37408,-461.40678 c -15.70091,0.0147 -23.68424,-3.50783 -28.10752,-8.66205 -7.3259,-7.38361 -11.9743,-16.60608 -11.844,-28.63783 -6.6869,1.68537 -13.5158,10.58142 -16.9786,15.07304 l -4.2374,21.46967 c -4.0258,8.35721 -12.1469,12.69819 -22.6246,10.83345 -7.7185,-1.37369 -9.7543,-7.8702 -12.0208,-14.67247 l 3.2261,-20.32932 c 3.7757,-23.79293 25.2322,-42.60036 46.2713,-47.0226 14.5898,-3.06666 28.34915,1.15424 41.71932,-1.81196 23.22181,-5.1518 35.07247,-35.3512 50.17868,-53.9971 18.74495,-29.23112 39.65485,-62.46182 66.49394,-86.49618 22.44763,21.42498 46.73692,33.2354 78.1353,34.64823 48.77238,-3.18139 57.84777,-18.54333 76.01398,-32.52691 23.24227,14.63407 40.49678,38.24978 59.39697,59.39697 11.5391,21.9332 21.27472,43.96451 30.19481,69.17147 11.50567,42.7012 23.33588,86.24671 24.95952,131.64686 1.43545,10.38151 -6.74472,28.25767 -23.33452,31.46624 -16.02494,3.09933 -31.78191,4.66847 -43.84062,-23.68807 -8.5193,-42.70226 -11.82777,-77.88226 -25.83382,-119.98281 l -6.51632,-14.01392 0.66945,128.12254 -1.90689,18.60211 L -662,580.86218 c 5.37292,70.16637 6.8871,139.78149 9.125,209.5 1.83238,12.96902 -15.92127,40.49036 -41.875,40.125 -18.91138,-1.55412 -36.76698,-11.26653 -41.375,-36 l -7.375,-188.125 -22.4375,-123.625 -35.375,0.3125 c -7.82126,43.81396 -18.62711,88.12535 -22.6875,131.3125 l -6.43934,179.46967 c -4.20125,19.65647 -17.39065,35.10176 -43.06066,36.03033 -18.00857,0.52374 -35.76316,-12.5933 -40.86244,-34.65533 l 7.06955,-201.5795 32.48039,-167.01517 c -1.93721,-7.24603 -3.85042,-14.50407 -4.80929,-22.23927 -0.62097,-201.05385 13.28778,-98.66871 -59.41596,-64.77436 z"
         style="fill:#005fd9;fill-opacity:1;stroke:none" />
    </g>
  </g>
</svg>
