<?xml version="1.0" encoding="UTF-8" standalone="no"?>
<!-- Created with Inkscape (http://www.inkscape.org/) -->

<svg
   xmlns:dc="http://purl.org/dc/elements/1.1/"
   xmlns:cc="http://creativecommons.org/ns#"
   xmlns:rdf="http://www.w3.org/1999/02/22-rdf-syntax-ns#"
   xmlns:svg="http://www.w3.org/2000/svg"
   xmlns="http://www.w3.org/2000/svg"
   xmlns:sodipodi="http://sodipodi.sourceforge.net/DTD/sodipodi-0.dtd"
   xmlns:inkscape="http://www.inkscape.org/namespaces/inkscape"
   width="744.09448819"
   height="1052.3622047"
   id="svg2"
   version="1.1"
   inkscape:version="0.48.5 r10040"
   sodipodi:docname="health.svg">
  <defs
     id="defs4" />
  <sodipodi:namedview
     id="base"
     pagecolor="#ffffff"
     bordercolor="#666666"
     borderopacity="1.0"
     inkscape:pageopacity="0.0"
     inkscape:pageshadow="2"
     inkscape:zoom="0.70710678"
     inkscape:cx="428.90087"
     inkscape:cy="614.49478"
     inkscape:document-units="px"
     inkscape:current-layer="layer1"
     showgrid="false"
     inkscape:window-width="1920"
     inkscape:window-height="1017"
     inkscape:window-x="-8"
     inkscape:window-y="-8"
     inkscape:window-maximized="1" />
  <metadata
     id="metadata7">
    <rdf:RDF>
      <cc:Work
         rdf:about="">
        <dc:format>image/svg+xml</dc:format>
        <dc:type
           rdf:resource="http://purl.org/dc/dcmitype/StillImage" />
        <dc:title></dc:title>
      </cc:Work>
    </rdf:RDF>
  </metadata>
  <g
     inkscape:label="Layer 1"
     inkscape:groupmode="layer"
     id="layer1">
    <g
       id="g3916"
       transform="translate(-1412.3259,-1116.4473)">
      <path
         sodipodi:nodetypes="cccccccscccscccsccsscc"
         inkscape:connector-curvature="0"
         id="path3902"
         d="m 1446.4419,1248.2738 108.2652,-120.9827 c 29.24,26.1292 61.8066,41.4205 107.2929,48.8389 75.2941,3.3592 92.0452,-12.987 121.5,-25.674 29.7388,18.1003 62.7445,30.2115 103.75,27.6562 50.2899,-3.0973 94.3971,-21.8633 129.75,-55.75 l 106.5,120 c -23.5238,50.9762 -42.7163,100.5049 -47.4645,163.5 -3.362,44.6054 11.8565,106.5939 35.3787,177.4081 18.3149,64.128 21.0099,163.3687 -84.2825,252.4424 -14.0791,14.2421 -29.2493,28.1724 -47.9642,41.09 -27.0221,15.5991 -58.9157,27.7244 -91.5722,42.0271 -21.4437,9.3918 -44.4963,21.0023 -62.2203,30.6574 -21.0377,13.2546 -30.9125,21.588 -42.0925,39.7034 -11.0972,-17.1442 -27.2655,-32.8562 -51.5147,-45.3033 -34.8069,-17.8047 -50.9132,-21.6095 -63.4724,-27.2471 -51.096,-22.9362 -77.958,-34.2215 -125.3457,-77.9244 -65.735,-57.7896 -74.869,-90.3362 -83.1403,-110.2183 -15.827,-30.9999 -16.6748,-96.3745 -13.9162,-105.5778 3.8732,-12.9215 3.822,-26.9899 7.5357,-39.9832 13.7761,-48.1992 29.7341,-95.1414 35.5711,-137.8243 7.0184,-67.074 -11.7301,-130.4284 -42.5581,-196.8384 z"
         style="fill:#005fd9;fill-opacity:1;stroke:#cb2e2e;stroke-width:1px;stroke-linecap:butt;stroke-linejoin:miter;stroke-opacity:1" />
      <path
         sodipodi:nodetypes="cccccccc"
         inkscape:connector-curvature="0"
         id="path3904"
         d="m 1667.26,1754.6932 78.3518,-0.3865 0.4541,-153.8007 80.6446,-1.5372 c 100.5972,-12.7464 93.7408,-113.8086 93.7937,-116.5483 1.8342,-11.771 4.703,-117.5883 -104.6325,-125.7706 l -148.5234,-0.7513 z"
         style="fill:#fffcff;fill-opacity:1;stroke:none" />
      <path
         sodipodi:nodetypes="cccccc"
         inkscape:connector-curvature="0"
         id="path3906"
         d="m 1744.375,1534.6122 51.75,-0.125 c 31.2318,-4.2021 46.0029,-20.8969 47.25,-54 2.0439,-36.9968 -15.2137,-53.5882 -44.2242,-58.5895 l -54.9008,-0.035 z"
         style="fill:#005fd9;fill-opacity:1;stroke:none" />
    </g>
  </g>
</svg>
